<svg width="1815" height="1815" viewBox="0 0 1815 1815" fill="none" xmlns="http://www.w3.org/2000/svg">
<rect width="1815" height="1815" fill="black"/>
<path d="M1117.74 708.354C1060.77 674.071 1036.57 588.363 1061.27 529.879C1080.93 484 1152.02 320.146 1152.02 320.146H905.988L357.958 1417.72C357.958 1417.72 511.729 1313.86 738.604 1413.68C809.692 1444.94 884.309 1474.18 968.504 1469.14C1166.64 1457.55 1324.95 1304.28 1342.6 1106.65C1358.73 932.204 1259.91 794.063 1117.74 708.354ZM1182.78 1094.04C1171.68 1206.98 1080.43 1297.73 968 1308.82C815.742 1323.94 689.196 1197.4 703.817 1044.63C714.909 931.7 806.163 840.95 918.592 829.859C1070.85 814.734 1197.9 941.784 1182.78 1094.04Z" fill="white"/>
<path d="M1057.24 1093.54C1052.2 1146.98 1008.84 1190.34 954.892 1195.88C882.292 1202.94 822.296 1142.95 829.355 1070.35C834.396 1016.9 877.755 973.546 931.7 968C1004.3 960.942 1064.3 1020.94 1057.24 1093.54Z" fill="white"/>
</svg>
