<svg width="1203" height="181" viewBox="0 0 1203 181" fill="none" xmlns="http://www.w3.org/2000/svg">
<path d="M119.284 60.9307C110.374 55.5542 106.523 42.074 110.448 32.8903C113.535 25.6676 124.671 0 124.671 0H86.0397L0 172.271C0 172.271 24.124 156.002 59.7328 171.61C70.8739 176.493 82.5923 181.112 95.7999 180.336C126.89 178.483 151.732 154.481 154.554 123.456C157.054 96.0715 141.538 74.3598 119.284 60.9307ZM129.518 121.431C127.774 139.119 113.467 153.425 95.7783 155.149C71.8842 157.519 51.9977 137.632 54.3464 113.717C56.0917 96.0284 70.3977 81.7225 88.0864 79.9772C112.002 77.6286 131.889 97.5149 129.518 121.431Z" fill="white"/>
<path d="M109.793 119.402C108.964 127.809 102.165 134.607 93.7581 135.427C82.4025 136.553 72.9516 127.102 74.0678 115.736C74.8972 107.33 81.696 100.531 90.1025 99.7016C101.468 98.5854 110.919 108.036 109.793 119.402Z" fill="white"/>
<path d="M237.654 153.76V28.9097H312.411C327.069 28.9097 338.222 32.9248 345.869 40.9549C351.096 46.436 353.711 52.683 353.711 59.69C353.711 70.9095 348.481 79.2628 338.031 84.738C352.945 89.8363 360.401 100.164 360.401 115.71C360.401 125.912 356.512 134.834 348.739 142.481C340.834 150.003 329.492 153.76 314.706 153.76L237.654 153.76ZM265.188 51.6597V79.0053H309.162C314.514 79.0053 318.53 77.665 321.207 74.9902C324.008 72.1839 325.414 68.809 325.414 64.8537C325.414 61.4132 324.136 58.4212 321.587 55.8663C318.913 53.0658 314.769 51.6597 309.162 51.6597H265.188ZM265.188 99.6494V131.202H313.749C319.487 131.202 324.074 129.61 327.517 126.421C330.446 123.237 331.912 119.599 331.912 115.524C331.912 111.694 330.446 108.194 327.517 105.005C323.945 101.438 319.358 99.6492 313.749 99.6492L265.188 99.6494Z" fill="white"/>
<path d="M403.233 153.76V28.9097H430.575V153.76H403.233Z" fill="white"/>
<path d="M481.435 153.76V28.9097H550.649C566.967 28.9097 579.455 33.4334 588.125 42.4867C595.006 49.7509 598.447 58.3556 598.447 68.2945C598.447 84.3548 590.034 96.0829 573.214 103.479L602.462 153.76H571.107L545.868 107.871H508.778V153.76L481.435 153.76ZM508.778 52.0427V84.7378H553.515C558.359 84.7378 562.437 83.2121 565.752 80.1483C569.199 76.9648 570.916 73.0156 570.916 68.2945C570.916 63.9623 569.45 60.3302 566.518 57.3981C564.477 55.232 562.054 53.766 559.254 53C557.213 52.3657 554.664 52.0427 551.603 52.0427H508.778Z" fill="white"/>
<path d="M642.027 153.76V28.9097H700.728C721.754 28.9097 738.072 34.8396 749.669 46.6933C760.888 58.2897 766.495 73.1414 766.495 91.2422C766.495 110.235 760.505 125.595 748.526 137.317C736.923 148.279 720.989 153.76 700.728 153.76H642.027ZM699.77 130.244C710.858 130.244 719.78 127.252 726.535 121.257C734.183 113.609 738.006 103.664 738.006 91.4277C738.006 79.4483 734.5 69.8263 727.493 62.5622C720.863 55.9321 711.624 52.6172 699.77 52.6172H669.367V130.244L699.77 130.244Z" fill="white"/>
<path d="M881.027 100.415H834.946V130.244H916.014V153.76H807.606V28.9097H911.616V52.6172H834.946V76.8992H881.027L881.027 100.415Z" fill="white"/>
<path d="M1062.66 28.9097L1013.14 96.7831V153.76H985.605V96.7831L935.898 28.9097H969.928L1000.33 72.3098L1030.54 28.9097H1062.66Z" fill="white"/>
<path d="M1168.01 100.415H1121.93V130.244H1203V153.76H1094.59V28.9097H1198.6V52.6172H1121.93V76.8992H1168.01L1168.01 100.415Z" fill="white"/>
</svg>
